HIERARCHY
ROOT Hips
{
	OFFSET 0.000000 100.481300 0.000000
	CHANNELS 6 Xposition Yposition Zposition Xrotation Yrotation Zrotation 
	JOINT Spine
	{
		OFFSET -0.279200 12.230698 -2.892100
		CHANNELS 3 Xrotation Yrotation Zrotation
		JOINT Spine1
		{
			OFFSET -0.232667 10.192268 -1.242267
			CHANNELS 3 Xrotation Yrotation Zrotation
			JOINT Spine1_split
			{
				OFFSET -0.232667 10.192268 -1.242267
				CHANNELS 3 Xrotation Yrotation Zrotation
				JOINT Spine2
				{
					OFFSET -0.232667 10.192268 -1.242267
					CHANNELS 3 Xrotation Yrotation Zrotation
					JOINT Neck
					{
						OFFSET -0.418800 17.814194 8.416900
						CHANNELS 3 Xrotation Yrotation Zrotation
						JOINT Head
						{
							OFFSET 0.000000 7.031097 3.806800
							CHANNELS 3 Xrotation Yrotation Zrotation
							JOINT HeadTop_End
							{
								OFFSET 0.000000 24.646606 12.978600
								CHANNELS 3 Xrotation Yrotation Zrotation
								End Site
								{
									OFFSET 0.000000 0.000000 0.000000
								}
							}
						}
					}
					JOINT LeftShoulder
					{
						OFFSET 8.476499 7.247704 -3.868750
						CHANNELS 3 Xrotation Yrotation Zrotation
						JOINT LeftShoulder_split
						{
							OFFSET 8.476499 7.247704 -3.868750
							CHANNELS 3 Xrotation Yrotation Zrotation
							JOINT LeftArm
							{
								OFFSET 9.308998 -2.777710 0.208600
								CHANNELS 3 Xrotation Yrotation Zrotation
								JOINT LeftForeArm
								{
									OFFSET 29.972298 0.000000 0.000000
									CHANNELS 3 Xrotation Yrotation Zrotation
									JOINT LeftHand
									{
										OFFSET 26.026505 0.000000 0.000000
										CHANNELS 3 Xrotation Yrotation Zrotation
										JOINT LeftHandThumb1
										{
											OFFSET 12.240501 -7.147949 9.207150
											CHANNELS 3 Xrotation Yrotation Zrotation
											JOINT LeftHandThumb2
											{
												OFFSET 4.138618 -2.389435 2.389433
												CHANNELS 3 Xrotation Yrotation Zrotation
												JOINT LeftHandThumb3
												{
													OFFSET 2.726913 -1.574387 1.574386
													CHANNELS 3 Xrotation Yrotation Zrotation
													JOINT LeftHandThumb4
													{
														OFFSET 3.941010 -2.275345 2.275342
														CHANNELS 3 Xrotation Yrotation Zrotation
														End Site
														{
															OFFSET 0.000000 0.000000 0.000000
														}
													}
												}
											}
										}
										JOINT LeftHandIndex1
										{
											OFFSET 24.424698 -1.985611 5.953459
											CHANNELS 3 Xrotation Yrotation Zrotation
											JOINT LeftHandIndex2
											{
												OFFSET 6.426697 0.000000 0.000000
												CHANNELS 3 Xrotation Yrotation Zrotation
												JOINT LeftHandIndex3
												{
													OFFSET 5.337898 0.000000 0.000000
													CHANNELS 3 Xrotation Yrotation Zrotation
													JOINT LeftHandIndex4
													{
														OFFSET 4.409401 0.000000 0.000000
														CHANNELS 3 Xrotation Yrotation Zrotation
														End Site
														{
															OFFSET 0.000000 0.000000 0.000000
														}
													}
												}
											}
										}
										JOINT LeftHandMiddle1
										{
											OFFSET 23.810104 0.000000 0.000000
											CHANNELS 3 Xrotation Yrotation Zrotation
											JOINT LeftHandMiddle2
											{
												OFFSET 7.176498 0.000000 0.000000
												CHANNELS 3 Xrotation Yrotation Zrotation
												JOINT LeftHandMiddle3
												{
													OFFSET 6.774902 0.000000 0.000000
													CHANNELS 3 Xrotation Yrotation Zrotation
													JOINT LeftHandMiddle4
													{
														OFFSET 5.403328 0.000000 0.000000
														CHANNELS 3 Xrotation Yrotation Zrotation
														End Site
														{
															OFFSET 0.000000 0.000000 0.000000
														}
													}
												}
											}
										}
										JOINT LeftHandRing1
										{
											OFFSET 22.908401 -0.839279 -6.020567
											CHANNELS 3 Xrotation Yrotation Zrotation
											JOINT LeftHandRing2
											{
												OFFSET 6.337502 0.000000 0.000000
												CHANNELS 3 Xrotation Yrotation Zrotation
												JOINT LeftHandRing3
												{
													OFFSET 5.779297 0.000000 0.000000
													CHANNELS 3 Xrotation Yrotation Zrotation
													JOINT LeftHandRing4
													{
														OFFSET 4.965698 0.000000 0.000000
														CHANNELS 3 Xrotation Yrotation Zrotation
														End Site
														{
															OFFSET 0.000000 0.000000 0.000000
														}
													}
												}
											}
										}
										JOINT LeftHandPinky1
										{
											OFFSET 20.037003 -1.530319 -10.950146
											CHANNELS 3 Xrotation Yrotation Zrotation
											JOINT LeftHandPinky2
											{
												OFFSET 5.254700 0.000000 0.000000
												CHANNELS 3 Xrotation Yrotation Zrotation
												JOINT LeftHandPinky3
												{
													OFFSET 4.810204 0.000000 0.000000
													CHANNELS 3 Xrotation Yrotation Zrotation
													JOINT LeftHandPinky4
													{
														OFFSET 3.647202 0.000000 0.000000
														CHANNELS 3 Xrotation Yrotation Zrotation
														End Site
														{
															OFFSET 0.000000 0.000000 0.000000
														}
													}
												}
											}
										}
									}
								}
							}
						}
					}
					JOINT RightShoulder
					{
						OFFSET -7.570500 7.247704 -3.868750
						CHANNELS 3 Xrotation Yrotation Zrotation
						JOINT RightShoulder_split
						{
							OFFSET -7.570500 7.247704 -3.868750
							CHANNELS 3 Xrotation Yrotation Zrotation
							JOINT RightArm
							{
								OFFSET -9.308998 -2.777710 0.208500
								CHANNELS 3 Xrotation Yrotation Zrotation
								JOINT RightForeArm
								{
									OFFSET -29.972300 0.000000 0.000000
									CHANNELS 3 Xrotation Yrotation Zrotation
									JOINT RightHand
									{
										OFFSET -26.026505 0.000000 0.000000
										CHANNELS 3 Xrotation Yrotation Zrotation
										JOINT RightHandThumb1
										{
											OFFSET -12.240601 -7.148026 9.207092
											CHANNELS 3 Xrotation Yrotation Zrotation
											JOINT RightHandThumb2
											{
												OFFSET -4.138618 -2.389435 2.389433
												CHANNELS 3 Xrotation Yrotation Zrotation
												JOINT RightHandThumb3
												{
													OFFSET -2.726974 -1.574417 1.574421
													CHANNELS 3 Xrotation Yrotation Zrotation
													JOINT RightHandThumb4
													{
														OFFSET -3.941010 -2.275345 2.275343
														CHANNELS 3 Xrotation Yrotation Zrotation
														End Site
														{
															OFFSET 0.000000 0.000000 0.000000
														}
													}
												}
											}
										}
										JOINT RightHandIndex1
										{
											OFFSET -24.424698 -1.985657 5.953444
											CHANNELS 3 Xrotation Yrotation Zrotation
											JOINT RightHandIndex2
											{
												OFFSET -6.426697 0.000000 0.000000
												CHANNELS 3 Xrotation Yrotation Zrotation
												JOINT RightHandIndex3
												{
													OFFSET -5.337898 0.000000 0.000000
													CHANNELS 3 Xrotation Yrotation Zrotation
													JOINT RightHandIndex4
													{
														OFFSET -4.409401 0.000000 0.000000
														CHANNELS 3 Xrotation Yrotation Zrotation
														End Site
														{
															OFFSET 0.000000 0.000000 0.000000
														}
													}
												}
											}
										}
										JOINT RightHandMiddle1
										{
											OFFSET -23.810097 0.000000 0.000000
											CHANNELS 3 Xrotation Yrotation Zrotation
											JOINT RightHandMiddle2
											{
												OFFSET -7.176498 0.000000 0.000000
												CHANNELS 3 Xrotation Yrotation Zrotation
												JOINT RightHandMiddle3
												{
													OFFSET -6.774902 0.000000 0.000000
													CHANNELS 3 Xrotation Yrotation Zrotation
													JOINT RightHandMiddle4
													{
														OFFSET -5.403328 0.000000 0.000000
														CHANNELS 3 Xrotation Yrotation Zrotation
														End Site
														{
															OFFSET 0.000000 0.000000 0.000000
														}
													}
												}
											}
										}
										JOINT RightHandRing1
										{
											OFFSET -22.908302 -0.839325 -6.020576
											CHANNELS 3 Xrotation Yrotation Zrotation
											JOINT RightHandRing2
											{
												OFFSET -6.337502 0.000000 0.000000
												CHANNELS 3 Xrotation Yrotation Zrotation
												JOINT RightHandRing3
												{
													OFFSET -5.779297 0.000000 0.000000
													CHANNELS 3 Xrotation Yrotation Zrotation
													JOINT RightHandRing4
													{
														OFFSET -4.965698 0.000000 0.000000
														CHANNELS 3 Xrotation Yrotation Zrotation
														End Site
														{
															OFFSET 0.000000 0.000000 0.000000
														}
													}
												}
											}
										}
										JOINT RightHandPinky1
										{
											OFFSET -20.037003 -1.530334 -10.950259
											CHANNELS 3 Xrotation Yrotation Zrotation
											JOINT RightHandPinky2
											{
												OFFSET -5.254700 0.000000 0.000000
												CHANNELS 3 Xrotation Yrotation Zrotation
												JOINT RightHandPinky3
												{
													OFFSET -4.810204 0.000000 0.000000
													CHANNELS 3 Xrotation Yrotation Zrotation
													JOINT RightHandPinky4
													{
														OFFSET -3.647202 0.000000 0.000000
														CHANNELS 3 Xrotation Yrotation Zrotation
														End Site
														{
															OFFSET 0.000000 0.000000 0.000000
														}
													}
												}
											}
										}
									}
								}
							}
						}
					}
				}
			}
		}
	}
	JOINT LeftUpLeg
	{
		OFFSET 15.427100 -6.655098 0.678600
		CHANNELS 3 Xrotation Yrotation Zrotation
		JOINT LeftLeg
		{
			OFFSET 4.081073 -39.591068 13.024000
			CHANNELS 3 Xrotation Yrotation Zrotation
			JOINT LeftFoot
			{
				OFFSET -4.081074 -37.707932 -15.979700
				CHANNELS 3 Xrotation Yrotation Zrotation
				JOINT LeftToeBase
				{
					OFFSET 5.346399 -15.068900 20.645000
					CHANNELS 3 Xrotation Yrotation Zrotation
					JOINT LeftToe_End
					{
						OFFSET 2.754700 0.931300 11.300900
						CHANNELS 3 Xrotation Yrotation Zrotation
						End Site
						{
							OFFSET 0.000000 0.000000 0.000000
						}
					}
				}
			}
		}
	}
	JOINT RightUpLeg
	{
		OFFSET -15.569500 -6.655098 0.678600
		CHANNELS 3 Xrotation Yrotation Zrotation
		JOINT RightLeg
		{
			OFFSET -4.081825 -39.591045 13.023800
			CHANNELS 3 Xrotation Yrotation Zrotation
			JOINT RightFoot
			{
				OFFSET 4.081824 -37.707954 -15.979600
				CHANNELS 3 Xrotation Yrotation Zrotation
				JOINT RightToeBase
				{
					OFFSET -5.346400 -15.068900 20.645000
					CHANNELS 3 Xrotation Yrotation Zrotation
					JOINT RightToe_End
					{
						OFFSET -2.754700 0.931300 11.300900
						CHANNELS 3 Xrotation Yrotation Zrotation
						End Site
						{
							OFFSET 0.000000 0.000000 0.000000
						}
					}
				}
			}
		}
	}
}
MOTION
Frames: 5
Frame Time: 0.016667
0.565976 49.295082 16.302280 0.145648 0.084436 0.850177 10.430364 0.116043 -1.478976 -0.199273 0.216427 -0.355483 0.000000 0.000000 0.000000 -0.199596 0.248527 -0.300892 -1.001768 -1.276608 0.469464 -8.883415 -4.319392 -5.320495 -0.000000 0.000000 0.000000 0.823519 -15.262025 -7.868746 0.000000 0.000000 0.000000 4.746757 -21.216405 -54.862190 -0.000036 -62.197554 -0.000044 31.062956 4.315266 41.770199 6.610625 1.798227 20.801491 2.716373 20.172571 -24.389166 -5.537243 29.849539 5.070902 0.000000 0.000000 0.000002 -0.224157 2.792780 -26.913881 0.396834 2.121282 -21.189289 0.083131 0.984447 -9.653135 -0.000001 -0.000000 -0.000000 1.299147 7.334331 -16.510932 0.329960 1.940099 -19.302451 0.233324 1.638448 -16.208119 0.000003 -0.000002 0.000004 1.797264 9.808450 -14.182644 0.205960 1.541208 -15.221563 0.265319 1.744712 -17.292065 -0.000002 0.000000 0.000001 2.041521 10.867640 -13.920347 0.168525 1.396440 -13.761323 0.107163 1.116554 -10.963890 -0.000000 -0.000000 -0.000004 3.171098 -4.378722 8.782889 0.000000 0.000000 0.000000 -3.950242 37.253399 63.733649 -0.000004 55.137935 0.000006 43.537275 4.741002 -36.277962 -9.383503 -1.613349 -17.604712 3.563435 -24.331444 34.658822 -6.607971 -37.497172 -11.176214 -0.000001 -0.000003 0.000002 2.952115 1.011166 13.530158 0.472456 -2.045687 26.006741 0.059753 -0.744404 9.177798 0.000001 -0.000000 0.000000 0.105322 -3.658234 2.530027 0.585000 -2.261679 29.000635 0.020472 -0.436572 5.367124 0.000002 -0.000002 0.000004 0.455252 -7.625813 4.309849 0.107458 -0.995707 12.318863 0.072400 -0.818816 10.104467 0.000001 -0.000000 -0.000000 -11.164706 -10.228246 7.169462 0.029107 -0.520508 6.403082 0.028661 -0.516323 6.351254 -0.000000 -0.000000 -0.000002 -86.310655 -11.432654 18.500290 79.644719 -0.697249 -3.143173 9.215307 -6.280528 -9.756311 -0.103129 -0.000001 -0.000001 0.000000 -0.000001 0.000000 -88.059368 12.724836 -14.134288 80.266238 0.663967 1.243746 10.521574 -0.517715 10.741990 -0.195512 0.000003 -0.000003 -0.000000 -0.000000 -0.000000 
0.565730 49.289337 16.343813 0.222160 0.094647 0.851234 10.467013 0.114691 -1.480339 -0.063330 0.215446 -0.380943 0.000000 0.000000 0.000000 -0.135199 0.251406 -0.311500 -0.819939 -1.276514 0.424692 -9.824153 -4.410231 -5.195476 -0.000000 -0.000000 0.000000 1.153613 -14.769743 -6.772559 0.000000 0.000000 0.000000 2.903381 -20.762689 -57.237709 -0.000035 -61.769642 -0.000040 32.795198 3.652915 41.345058 6.533115 1.838521 20.872488 2.677528 20.203930 -24.333461 -5.498107 29.834468 4.956431 0.000001 -0.000002 0.000001 -0.213803 2.829561 -27.080112 0.399410 2.127927 -21.258950 0.083554 0.986910 -9.677616 -0.000002 -0.000001 -0.000001 1.306680 7.335268 -16.626919 0.323889 1.922680 -19.122265 0.233309 1.638447 -16.208189 -0.000000 0.000001 -0.000001 1.816476 9.843956 -14.270837 0.205435 1.539299 -15.202381 0.268397 1.754553 -17.392858 -0.000000 -0.000000 0.000001 2.011318 10.855355 -13.919873 0.168834 1.397710 -13.774332 0.108154 1.121694 -11.014958 -0.000000 0.000000 -0.000001 3.187854 -4.727846 8.245240 0.000000 0.000000 0.000000 -4.932284 37.148381 65.022117 0.000030 54.880082 -0.000024 44.176506 5.104085 -36.335377 -9.372625 -1.608890 -17.589740 3.594666 -24.360884 34.677372 -6.576863 -37.532695 -11.143428 -0.000001 -0.000003 -0.000001 2.953636 1.011744 13.517901 0.476492 -2.053916 26.119028 0.060213 -0.747266 9.213526 -0.000000 0.000001 0.000001 0.105327 -3.658237 2.530069 0.587672 -2.266497 29.068039 0.020249 -0.434252 5.338711 0.000002 0.000002 -0.000001 0.455256 -7.625855 4.309871 0.108242 -0.999305 12.364101 0.071745 -0.815139 10.058762 0.000003 0.000001 0.000001 -11.166281 -10.222006 7.155024 0.029208 -0.521239 6.412213 0.028794 -0.517674 6.367983 0.000001 0.000002 -0.000003 -86.485071 -11.417670 18.416784 79.728907 -0.612542 -3.087318 9.246178 -6.281748 -9.569892 -0.115869 0.000004 -0.000001 -0.000000 -0.000000 -0.000000 -88.204004 12.769407 -14.063570 80.419426 0.644934 1.199409 10.527038 -0.587519 10.660851 -0.232737 -0.000001 -0.000002 -0.000000 -0.000000 -0.000000 
0.563198 49.292137 16.393454 0.270722 0.105220 0.855293 10.538065 0.109585 -1.483951 0.117321 0.217353 -0.407600 0.000000 0.000000 0.000000 -0.022415 0.256674 -0.330248 -0.608623 -1.274648 0.376579 -10.758935 -4.494758 -5.054919 -0.000000 0.000000 0.000000 1.483755 -14.226183 -5.573874 0.000000 0.000000 0.000000 1.069126 -20.426970 -59.574180 0.000006 -61.355077 0.000006 34.405934 2.995973 41.065078 6.452960 1.879064 20.945106 2.637615 20.235385 -24.276311 -5.454163 29.824079 4.818341 0.000000 0.000000 -0.000000 -0.202170 2.869509 -27.281738 0.403271 2.137809 -21.362738 0.083949 0.989243 -9.700716 0.000003 -0.000003 0.000002 1.314190 7.336101 -16.743268 0.317885 1.905290 -18.942386 0.233317 1.638446 -16.208150 -0.000000 -0.000002 0.000001 1.837831 9.880256 -14.375275 0.203779 1.533234 -15.140798 0.273347 1.770294 -17.553863 0.000002 0.000000 0.000004 1.980425 10.842490 -13.919525 0.169159 1.399060 -13.787684 0.109880 1.130440 -11.102239 -0.000004 0.000002 -0.000004 3.198767 -5.102191 7.675742 0.000000 0.000000 0.000000 -5.994465 37.040164 66.362364 -0.000025 54.665723 0.000037 44.858439 5.503244 -36.428865 -9.351713 -1.600127 -17.560058 3.651747 -24.412455 34.712346 -6.515474 -37.600379 -11.078774 -0.000002 -0.000002 -0.000001 2.954284 1.012332 13.493641 0.483863 -2.068888 26.324297 0.061123 -0.752849 9.282800 0.000001 -0.000000 0.000001 0.105325 -3.658245 2.530049 0.592576 -2.275301 29.192082 0.019813 -0.429647 5.281571 0.000001 -0.000001 -0.000004 0.455254 -7.625836 4.309869 0.109719 -1.006029 12.448366 0.070520 -0.808172 9.971750 0.000002 -0.000000 0.000000 -11.173435 -10.204962 7.126054 0.029260 -0.521844 6.419538 0.028906 -0.518678 6.380377 0.000004 0.000000 -0.000002 -86.673106 -11.439459 18.352157 79.751782 -0.569282 -3.035609 9.568641 -6.229023 -9.559520 -0.154014 0.000011 -0.041564 -0.000000 0.000001 -0.000000 -88.385045 12.801982 -13.938656 80.587196 0.646844 1.105998 10.684041 -0.700742 10.617805 -0.243897 -0.000007 0.009948 -0.000000 -0.000000 -0.000000 
0.559288 49.302002 16.448769 0.303511 0.116428 0.861361 10.629135 0.102380 -1.489001 0.315336 0.220705 -0.432224 0.000000 0.000000 0.000000 0.118233 0.263075 -0.353244 -0.378663 -1.271492 0.326493 -11.685036 -4.574094 -4.904681 -0.000000 -0.000000 -0.000000 1.802072 -13.648140 -4.308315 0.000000 0.000000 0.000000 -0.710276 -20.139151 -61.883420 -0.000008 -60.953680 -0.000010 35.923687 2.343235 40.900860 6.371259 1.919670 21.018736 2.597044 20.266819 -24.218321 -5.407428 29.816330 4.666551 -0.000000 -0.000003 0.000004 -0.189486 2.911289 -27.505100 0.407940 2.149735 -21.487814 0.084340 0.991524 -9.723029 0.000001 0.000001 0.000000 1.321736 7.336931 -16.860344 0.311932 1.887872 -18.762627 0.233314 1.638441 -16.208088 -0.000002 0.000002 -0.000001 1.860525 9.917042 -14.489247 0.201470 1.524651 -15.054188 0.279503 1.789587 -17.751476 -0.000000 0.000001 -0.000000 1.949157 10.829351 -13.919242 0.169486 1.400395 -13.801254 0.112022 1.141324 -11.210489 0.000002 0.000000 -0.000003 3.202634 -5.492629 7.084808 0.000000 0.000000 0.000000 -7.091214 36.919693 67.729303 -0.000046 54.479358 0.000060 45.560329 5.928805 -36.554708 -9.324221 -1.588516 -17.520818 3.726580 -24.479051 34.758221 -6.434089 -37.689090 -10.993005 -0.000005 -0.000003 0.000001 2.954044 1.012884 13.461917 0.493632 -2.088505 26.593545 0.062328 -0.760208 9.374080 0.000001 0.000002 0.000004 0.105321 -3.658245 2.530007 0.599060 -2.286873 29.355111 0.019269 -0.423542 5.206494 -0.000001 -0.000002 -0.000002 0.455238 -7.625770 4.309850 0.111691 -1.014861 12.559482 0.068904 -0.799011 9.857625 0.000000 0.000001 -0.000001 -11.184687 -10.181503 7.087841 0.029331 -0.522435 6.426598 0.029032 -0.519703 6.393157 0.000006 0.000000 -0.000001 -86.902307 -11.473448 18.272199 79.850410 -0.522004 -2.962012 9.766836 -6.112906 -9.595890 -0.161297 0.000008 -0.000000 -0.000000 -0.000000 -0.000000 -88.595354 12.814735 -13.768454 80.764221 0.649502 0.971521 10.932301 -0.844717 10.577339 -0.276426 -0.000200 0.163029 0.000000 -0.000000 -0.000000 
0.555371 49.316216 16.506445 0.322101 0.127399 0.868411 10.755120 0.095153 -1.494629 0.561807 0.226205 -0.458109 0.000000 0.000000 0.000000 0.311176 0.271967 -0.384474 -0.128491 -1.267130 0.274483 -12.595950 -4.648122 -4.744551 -0.000000 -0.000000 -0.000000 2.105334 -13.032949 -2.969768 0.000000 0.000000 0.000000 -2.448519 -19.928784 -64.159409 0.000013 -60.572856 0.000018 37.331164 1.707238 40.857386 6.288033 1.960359 21.093332 2.555842 20.298223 -24.159494 -5.357988 29.811109 4.501555 -0.000001 -0.000003 -0.000002 -0.175635 2.954802 -27.750128 0.413472 2.163692 -21.634602 0.084714 0.993683 -9.744600 0.000000 0.000002 -0.000003 1.329379 7.337853 -16.978855 0.306044 1.870431 -18.582904 0.233317 1.638433 -16.208027 -0.000002 0.000001 0.000001 1.884557 9.954284 -14.612580 0.198543 1.513753 -14.943810 0.286836 1.812325 -17.985283 -0.000001 -0.000000 0.000002 1.917505 10.815937 -13.918983 0.169830 1.401765 -13.814963 0.114599 1.154250 -11.338939 -0.000003 0.000000 -0.000001 3.198645 -5.900650 6.470102 0.000000 0.000000 0.000000 -8.231919 36.790541 69.124219 -0.000040 54.322028 0.000049 46.276062 6.385752 -36.719452 -9.289246 -1.573741 -17.470934 3.821639 -24.562663 34.816411 -6.330141 -37.801166 -10.883412 -0.000001 0.000003 0.000002 2.952717 1.013276 13.422246 0.506169 -2.113344 26.935556 0.063875 -0.769489 9.489965 -0.000001 -0.000001 0.000003 0.105326 -3.658235 2.529945 0.607373 -2.301543 29.562527 0.018564 -0.415905 5.112406 -0.000000 -0.000000 0.000002 0.455236 -7.625691 4.309808 0.114206 -1.026129 12.701112 0.066918 -0.787486 9.714052 -0.000001 0.000000 0.000001 -11.200456 -10.151291 7.039743 0.029394 -0.523048 6.434427 0.029182 -0.521077 6.410031 0.000002 -0.000001 -0.000001 -87.147927 -11.504368 18.169288 79.961407 -0.461692 -2.860688 9.982785 -5.961904 -9.662588 -0.194341 0.000012 0.000003 0.000000 -0.000000 -0.000000 -88.824670 12.797190 -13.548336 80.939046 0.655935 0.787653 11.242867 -1.033787 10.549993 -0.267829 -0.001044 0.369502 0.000000 0.000000 -0.000000 
